<svg id="Layer_1" data-name="Layer 1" xmlns="http://www.w3.org/2000/svg" viewBox="0 0 322.89 50.84"><defs><style>.cls-1,.cls-2{fill:#fff;}.cls-2{isolation:isolate;font-size:8.22px;font-family:LemonMilk, "Lemon/Milk";}</style></defs><title>LOGO</title><polygon class="cls-1" points="4.74 0.95 0 0.95 5.69 21.52 10.11 21.52 4.74 0.95"/><polygon class="cls-1" points="9.03 36.17 9.03 49.89 13.77 49.89 13.77 36.45 15.3 30.77 7.53 30.77 9.03 36.17"/><polygon class="cls-1" points="22.68 0.95 18 0.95 12.63 21.52 17.11 21.52 22.68 0.95"/><path class="cls-1" d="M43.69,37.34c0,4.82-.66,9.3-6.18,9.25-4.85,0-6.14-3.19-6.14-9.25V30.77H26.63V38c0,8.57,3.63,12.88,10.88,12.88S48.43,46.53,48.43,38V30.77H43.69Z"/><path class="cls-1" d="M31.38,13.5c0-6,1.28-9.25,6.14-9.25C43,4.19,43.7,8.67,43.7,13.5v8h4.74V12.88C48.44,4.31,44.81,0,37.52,0S26.64,4.31,26.64,12.88v8.64h4.74Z"/><rect class="cls-1" x="72.45" y="0.95" width="4.73" height="20.57"/><rect class="cls-1" x="55.4" y="0.95" width="4.73" height="20.57"/><path class="cls-1" d="M72.45,37.34c0,4.82-.67,9.3-6.18,9.25-4.85,0-6.14-3.19-6.14-9.25V30.77H55.4V38c0,8.57,3.62,12.88,10.87,12.88S77.19,46.53,77.19,38V30.77H72.45Z"/><rect class="cls-1" x="89.12" y="30.77" width="4.73" height="19.12"/><polygon class="cls-1" points="93.85 5.26 100.71 5.26 100.71 0.95 82.32 0.95 82.32 5.26 89.12 5.26 89.12 21.52 93.85 21.52 93.85 5.26"/><rect class="cls-1" x="106" y="30.77" width="4.73" height="19.12"/><polyline class="cls-1" points="127.8 21.52 127.8 0.95 123.06 0.95 123.06 21.28"/><polyline class="cls-1" points="110.74 21.28 110.74 0.95 106 0.95 106 21.52"/><rect class="cls-1" x="123.05" y="30.77" width="4.73" height="19.12"/><path class="cls-1" d="M149.81,13.5c0-6,1.29-9.25,6.14-9.25,5.52-.06,6.19,4.42,6.19,9.25v2.69h4.73V12.88C166.87,4.31,163.25,0,156,0s-10.92,4.31-10.92,12.88v8.64h4.74Z"/><path class="cls-1" d="M145.07,38c0,8.57,3.63,12.88,10.93,12.88S166.86,46.53,166.86,38V33.15h-4.73v4.19c0,4.82-.67,9.3-6.19,9.25-4.84,0-6.13-3.19-6.13-9.25V30.77h-4.74Z"/><path class="cls-1" d="M188.49,30.91c1.28.67,1.95,2.41,1.95,4.92v5.6c0,4.65.17,7.51.56,8.46h4.6a29.81,29.81,0,0,1-.44-6.55V36.42a15.6,15.6,0,0,0-.39-4.42,5.72,5.72,0,0,0-.4-1.21h-6.16Z"/><rect class="cls-1" x="173.38" y="30.77" width="4.73" height="19.12"/><path class="cls-1" d="M178.12,5.27h6.65c4.4,0,5.69,1.84,5.69,7.67v4.53a7.24,7.24,0,0,1-.86,4.05h4.81a11.79,11.79,0,0,0,.78-4.77V12.27c0-3.53-.33-5.71-1.61-7.95S189.84,1,186,1H173.38V21.51h4.74Z"/><polygon class="cls-1" points="202.09 49.89 219.42 49.89 219.42 45.58 206.82 45.58 206.82 30.77 202.09 30.77 202.09 49.89"/><polygon class="cls-1" points="234.69 6.27 237.06 21.52 241.66 21.52 238.37 0.95 231.01 0.95 227.63 21.52 232.19 21.52 234.69 6.27"/><polygon class="cls-1" points="238.71 34.66 230.46 34.66 231.09 30.77 226.53 30.77 223.38 49.89 228.06 49.89 229.79 38.92 239.37 38.92 241.05 49.89 245.78 49.89 242.72 30.77 238.1 30.77 238.71 34.66"/><rect class="cls-1" x="255.43" y="30.77" width="4.73" height="19.12"/><polygon class="cls-1" points="260.16 5.26 267.02 5.26 267.02 0.95 248.63 0.95 248.63 5.26 255.43 5.26 255.43 21.52 260.16 21.52 260.16 5.26"/><path class="cls-1" d="M288.82,37.34c0,4.82-.67,9.3-6.19,9.25-4.84,0-6.13-3.19-6.13-9.25V30.77h-4.74V38c0,8.57,3.62,12.88,10.87,12.88S293.55,46.53,293.55,38V30.77h-4.73Z"/><path class="cls-1" d="M276.49,13.5c0-6,1.29-9.25,6.14-9.25,5.52-.06,6.19,4.42,6.19,9.25v8h4.73V12.88C293.55,4.31,289.93,0,282.63,0s-10.87,4.31-10.87,12.88v8.64h4.74Z"/><path class="cls-1" d="M305.42,5.27h6.64c4.41,0,5.69,1.84,5.69,7.67v4.53a7.24,7.24,0,0,1-.86,4.05h4.82a12,12,0,0,0,.78-4.77V12.27c0-3.53-.34-5.71-1.62-7.95S317.14,1,313.29,1H300.68V21.51h4.74Z"/><rect class="cls-1" x="300.68" y="30.77" width="4.73" height="19.12"/><path class="cls-1" d="M315.78,30.91c1.29.67,2,2.41,2,4.92v5.6c0,4.65.16,7.51.55,8.46h4.6a29.81,29.81,0,0,1-.44-6.55V36.42a15.6,15.6,0,0,0-.39-4.42,5.72,5.72,0,0,0-.4-1.21h-6.15Z"/><polygon class="cls-1" points="219.42 5.26 219.42 0.95 202.09 0.95 202.09 21.52 206.82 21.52 206.82 21.11 206.82 21.11 206.82 5.26 219.42 5.26"/><text class="cls-2" transform="translate(96.46 29.2)">Unity of creators &amp; artiste</text></svg>